<svg width="28" height="26" viewBox="0 0 28 26" fill="none" xmlns="http://www.w3.org/2000/svg">
<g clip-path="url(#clip0_196_9213)">
<path fill-rule="evenodd" clip-rule="evenodd" d="M3.26696 6.05913C5.30174 6.05913 6.57913 4.71391 6.57913 3.02957C6.54522 1.3113 5.31304 0 3.31217 0C1.3113 0 0 1.3113 0 3.02957C0 4.74783 1.26609 6.05913 3.23304 6.05913H3.26696ZM0.350435 26H6.19478V8.45565H0.350435V26Z" fill="#202223"/>
<path fill-rule="evenodd" clip-rule="evenodd" d="M9.42886 26H15.2732V16.1991C15.2732 15.6791 15.3071 15.1478 15.4654 14.7748C15.8836 13.7235 16.8558 12.6383 18.461 12.6383C20.5749 12.6383 21.4228 14.2435 21.4228 16.6061V25.9887H27.2671V15.9391C27.2671 10.547 24.3845 8.04871 20.5297 8.04871C17.3758 8.04871 15.9854 9.81218 15.2167 10.9991H15.2506V8.45566H9.40625C9.48538 10.1061 9.40625 26 9.40625 26H9.42886Z" fill="#202223"/>
</g>
<defs>
<clipPath id="clip0_196_9213">
<rect width="27.2887" height="26" fill="white"/>
</clipPath>
</defs>
</svg>
